<?xml version="1.0" standalone="no"?>
<!DOCTYPE svg PUBLIC "-//W3C//DTD SVG 20010904//EN"
 "http://www.w3.org/TR/2001/REC-SVG-20010904/DTD/svg10.dtd">
<svg version="1.0" xmlns="http://www.w3.org/2000/svg"
 width="500.000000pt" height="500.000000pt" viewBox="0 0 500.000000 500.000000"
 preserveAspectRatio="xMidYMid meet">

<g transform="translate(0.000000,500.000000) scale(0.100000,-0.100000)"
fill="#8c52ff" stroke="none">
<path d="M2163 2770 c-22 -9 -43 -39 -43 -60 0 -20 49 -60 73 -60 55 0 92 70
56 105 -19 19 -60 26 -86 15z"/>
<path d="M1712 2645 c3 -41 1 -45 -19 -45 -21 0 -23 -5 -23 -45 0 -41 2 -45
25 -45 25 0 25 -1 25 -85 0 -79 2 -87 29 -117 l29 -33 123 -3 c92 -2 124 0
131 10 4 7 8 52 8 101 0 74 3 90 21 108 13 13 30 19 47 17 27 -3 27 -3 28 -88
1 -47 2 -100 3 -119 l1 -33 65 4 65 4 0 -63 0 -63 60 0 60 0 0 65 0 65 68 -6
c79 -8 115 6 156 58 l25 32 22 -28 c47 -59 173 -85 253 -52 48 20 52 33 21 66
-26 27 -28 28 -62 13 -45 -18 -100 -7 -121 25 l-14 22 118 1 c66 1 123 1 128
0 16 -3 -1 100 -21 127 -71 96 -198 104 -289 20 -24 -22 -44 -36 -44 -30 0 20
-63 70 -98 79 -21 4 -69 7 -108 5 -71 -4 -72 -4 -76 -33 -4 -28 -3 -30 19 -24
12 3 23 2 23 -3 0 -16 -72 -257 -79 -264 -4 -5 -5 35 -3 88 4 94 4 96 -16 85
-11 -6 -24 -11 -28 -11 -4 0 -4 36 0 80 l6 80 -67 1 c-96 2 -115 -1 -140 -17
-28 -18 -33 -18 -33 1 0 12 -13 15 -55 15 l-55 0 0 -128 0 -128 -35 1 c-19 1
-38 5 -42 9 -4 4 -9 38 -11 77 l-4 69 41 0 41 0 0 45 0 45 -40 0 -40 0 0 45 0
45 -61 0 -61 0 4 -45z m801 -147 c10 -12 17 -36 17 -59 0 -51 -29 -81 -73 -77
l-32 3 -3 77 c-2 66 0 77 15 81 27 7 56 -3 76 -25z m349 15 c36 -32 23 -43
-52 -43 -38 0 -70 3 -70 8 0 4 7 18 16 30 19 27 78 30 106 5z"/>
<path d="M2966 2598 c6 -11 37 -52 106 -144 5 -7 -16 -42 -52 -90 -33 -43 -60
-82 -60 -86 0 -5 24 -8 53 -8 50 0 54 2 93 46 l40 47 30 -46 29 -47 63 0 c34
0 62 3 62 6 0 3 -20 31 -43 62 -88 114 -86 98 -17 191 l60 81 -60 0 c-59 0
-61 -1 -88 -40 -15 -21 -30 -39 -34 -40 -4 0 -19 18 -35 40 -28 39 -29 40 -91
40 -48 0 -61 -3 -56 -12z"/>
</g>
</svg>
